{"title":"Hell's Drifter (2009) WEBRip","uid":8282429,"size":1535985483,"categoryP":"video","categoryS":"movies","magnet":"?xt=urn:btih:17e18d4ffc1cd1ccf1bfa875c74c9b461627cde4&amp;dn=Hell%27s+Drifter+%282009%29+WEBRip&amp;tr=udp%3A%2F%2Ftracker.openbittorrent.com%3A80&amp;tr=udp%3A%2F%2Fopen.demonii.com%3A1337&amp;tr=udp%3A%2F%2Ftracker.coppersurfer.tk%3A6969&amp;tr=udp%3A%2F%2Fexodus.desync.com%3A6969","seeders":1,"leechers":0,"uploader":"RadioResearch","files":3,"time":1363873436,"description":"*******************************************************************************\n                         Hell's Drifter (2009) WEBRip\n*******************************************************************************\n\n-------------------------------------------------------------------------------\n                              General Information\n-------------------------------------------------------------------------------\nType.................: Movie\n\n\n\nVideo Format.........: MKV\nVideo Bitrate........: 2161\nResolution...........: 640 x 360\nColor................: 8 bit\nFPS..................: 29.970\nSource...............: WEB 16:9\nOriginal Format......: NTSC\nGenre................: Horror\nIMDb Rating..........: 1.2\nMovie Information....: http://www.imdb.com/title/tt1329363/\n\n-------------------------------------------------------------------------------\n                               Post Information\n-------------------------------------------------------------------------------\nPosted by............: RadioResearch\nPosted on............: 3/21/2013\n\n-------------------------------------------------------------------------------\n                                 Release Notes\n-------------------------------------------------------------------------------\nSEEDBOX SUPPORTED!!\n\nAfter having an acrimonious argument with his girlfriend, Greg Wallace takes his \nvicious temper out on the wrong person: a wandering vagrant. As luck would have \nit, this is not just any wandering vagrant, but one who retains powerful grudges \nagainst those who do him wrong. Later when Greg is involved in a serious \naccident in which he breaks both his legs, the vagrant is the only person who \nfinds him. But rescue, however, is the last thing on the vagrant's mind: he \nwants retribution. Too isolated for help to reach him and with his condition \nrapidly deteriorating, Greg is forced to engage in a psychological game of cat \nand mouse with the evil transient which ends up dragging in innocent passers-by \nand even those Greg cares about. A ruthless battle of wills ensues with every \nmanner of Red Herring thrown in along the way, leading to a shattering climax.\n\nEnjoy!\n\nRadioResearch\n\nGeneral\nComplete name                            : G:Hell's Drifter (2009)Hell's \nDrifter.mkv\nFormat                                   : Matroska\nFormat version                           : Version 1\nFile size                                : 1.43 GiB\nDuration                                 : 1h 34mn\nOverall bit rate                         : 2 161 Kbps\nEncoded date                             : UTC 2013-03-20 17:17:12\nWriting library                          : WonderShare Matroska Muxer\n\nVideo\nID                                       : 1\nFormat                                   : AVC\nFormat/Info                              : Advanced Video Codec\nFormat profile                           : &lt;a class=&quot;__cf_email__&quot; href=&quot;/cdn-cgi/l/email-protection&quot; data-cfemail=&quot;10527163757c797e75505c233e20&quot;&gt;[email&amp;#160;protected]&lt;/a&gt;&lt;script cf-hash='f9e31' type=&quot;text/javascript&quot;&gt;\n/* &lt;![CDATA[ */!function(){try{var t=&quot;currentScript&quot;in document?document.currentScript:function(){for(var t=document.getElementsByTagName(&quot;script&quot;),e=t.length;e--;)if(t[e].getAttribute(&quot;cf-hash&quot;))return t[e]}();if(t&amp;&amp;t.previousSibling){var e,r,n,i,c=t.previousSibling,a=c.getAttribute(&quot;data-cfemail&quot;);if(a){for(e=&quot;&quot;,r=parseInt(a.substr(0,2),16),n=2;a.length-n;n+=2)i=parseInt(a.substr(n,2),16)^r,e+=String.fromCharCode(i);e=document.createTextNode(e),c.parentNode.replaceChild(e,c)}}}catch(u){}}();/* ]]&gt; */&lt;/script&gt;\nFormat settings, CABAC                   : No\nFormat settings, ReFrames                : 1 frame\nFormat settings, GOP                     : M=1, N=25\nCodec ID                                 : V_MPEG4/ISO/AVC\nDuration                                 : 1h 34mn\nBit rate                                 : 1 990 Kbps\nWidth                                    : 640 pixels\nHeight                                   : 360 pixels\nDisplay aspect ratio                     : 16:9\nFrame rate mode                          : Variable\nFrame rate                               : 29.970 fps\nOriginal frame rate                      : 29.000 fps\nColor space                              : YUV\nChroma subsampling                       : 4:2:0\nBit depth                                : 8 bits\nScan type                                : Progressive\nBits/(Pixel*Frame)                       : 0.288\nStream size                              : 1.32 GiB (92%)\nDefault                                  : Yes\nForced                                   : No\n\nAudio\nID                                       : 2\nFormat                                   : AC-3\nFormat/Info                              : Audio Coding 3\nMode extension                           : CM (complete main)\nFormat settings, Endianness              : Big\nCodec ID                                 : A_AC3\nDuration                                 : 1h 34mn\nBit rate mode                            : Constant\nBit rate                                 : 128 Kbps\nChannel(s)                               : 2 channels\nChannel positions                        : Front: L R\nSampling rate                            : 44.1 KHz\nBit depth                                : 16 bits\nCompression mode                         : Lossy\nStream size                              : 86.8 MiB (6%)\nDefault                                  : Yes\nForced                                   : No\n\n\n\n\n-------------------------------------------------------------------------------\nGenerated with Cool NFO Creator - http://fly.to/coolbeans\n-------------------------------------------------------------------------------\n","torrent":{"xt":"urn:btih:17e18d4ffc1cd1ccf1bfa875c74c9b461627cde4","amp;dn":"Hell%27s+Drifter+%282009%29+WEBRip","amp;tr":["udp%3A%2F%2Ftracker.openbittorrent.com%3A80","udp%3A%2F%2Fopen.demonii.com%3A1337","udp%3A%2F%2Ftracker.coppersurfer.tk%3A6969","udp%3A%2F%2Fexodus.desync.com%3A6969"],"infoHash":"17e18d4ffc1cd1ccf1bfa875c74c9b461627cde4","infoHashBuffer":{"type":"Buffer","data":[23,225,141,79,252,28,209,204,241,191,168,117,199,76,155,70,22,39,205,228]},"announce":[],"urlList":[]}}